<?xml version="1.0" encoding="utf-8"?>
<!-- Generator: Adobe Illustrator 23.0.3, SVG Export Plug-In . SVG Version: 6.00 Build 0)  -->
<svg version="1.1" id="LOGO" xmlns="http://www.w3.org/2000/svg" xmlns:xlink="http://www.w3.org/1999/xlink" x="0px" y="0px"
	 viewBox="0 0 592.65 596.61" style="enable-background:new 0 0 592.65 596.61;" xml:space="preserve">
<style type="text/css">
	.st0{fill:#2C3E50;}
	.st1{fill:#34495E;}
	.st2{fill:#95A5A6;}
	.st3{fill:#7F8C8D;}
	.st4{fill:#BDC3C7;}
	.st5{fill:#8E44AD;}
</style>
<g transform="translate(0 -1028.4)">
	<path class="st0" d="M140.83,1176.64c-17.18,0-31.1,13.92-31.1,31.1v108.85v15.55v108.85c0,17.18,13.92,31.1,31.1,31.1h15.55v15.55
		h62.2v-15.55h155.49v15.55h62.2v-15.55h15.55c17.18,0,31.1-13.92,31.1-31.1v-108.85v-15.55v-108.85c0-17.18-13.92-31.1-31.1-31.1
		h-31.1H171.93H140.83z"/>
	<path class="st1" d="M140.83,1161.09c-17.18,0-31.1,13.99-31.1,31.1v108.85v15.55v108.85c0,17.1,13.92,31.1,31.1,31.1h31.1h248.79
		h31.1c17.18,0,31.1-13.99,31.1-31.1v-108.85v-15.55v-108.85c0-17.1-13.92-31.1-31.1-31.1h-31.1H171.93H140.83z"/>
	<g>
		<path class="st0" d="M335.2,1207.74c-64.41,0-116.62,51.31-116.62,116.62c0,63.75,52.21,116.62,116.62,116.62
			s116.62-52.87,116.62-116.62C451.82,1259.05,399.6,1207.74,335.2,1207.74z M335.2,1238.83c47.24,0,85.52,37.32,85.52,85.52
			c0,46.65-38.28,85.52-85.52,85.52s-85.52-38.87-85.52-85.52C249.68,1276.15,287.96,1238.83,335.2,1238.83z"/>
		<path class="st0" d="M187.48,1215.51c0,12.88-10.44,23.32-23.32,23.32s-23.32-10.44-23.32-23.32c0-12.88,10.44-23.32,23.32-23.32
			S187.48,1202.63,187.48,1215.51z"/>
		<path class="st0" d="M187.48,1402.1c0,12.88-10.44,23.32-23.32,23.32s-23.32-10.44-23.32-23.32s10.44-23.32,23.32-23.32
			S187.48,1389.22,187.48,1402.1z"/>
	</g>
	<g>
		<rect x="156.38" y="1207.74" class="st2" width="15.55" height="202.14"/>
		<rect x="156.38" y="1363.23" class="st3" width="15.55" height="46.65"/>
		<rect x="156.38" y="1207.74" class="st4" width="15.55" height="46.65"/>
		<path class="st5" d="M342.97,1308.81c0,4.29-3.48,7.77-7.77,7.77c-4.29,0-7.77-3.48-7.77-7.77s3.48-7.77,7.77-7.77
			C339.49,1301.03,342.97,1304.51,342.97,1308.81z"/>
	</g>
	<path class="st2" d="M389.62,1378.78l-139.94-139.94l15.55-15.55l155.49,155.49l-15.55,15.55L389.62,1378.78z"/>
	<path class="st2" d="M280.78,1378.78l139.94-139.94l-15.55-15.55l-155.49,155.49l15.55,15.55L280.78,1378.78z"/>
	<path class="st3" d="M257.45,1231.06l-7.77,7.77l62.2,62.2l7.77-7.77L257.45,1231.06z M412.95,1231.06l-62.2,62.2l7.77,7.77
		l62.2-62.2L412.95,1231.06z M335.2,1308.81l-54.42,54.42l-15.55,15.55l-7.77-7.77l-7.77,7.77l15.55,15.55l15.55-15.55l54.42-54.42
		l54.42,54.42l15.55,15.55l15.55-15.55l-7.77-7.77l-7.77,7.77l-15.55-15.55L335.2,1308.81z"/>
	<path class="st3" d="M269.6,1226.39c-6.08,4.67-11.82,9.33-17,13.99l22.35,23.32c5.22-4.67,11.07-9.33,17.49-13.99l-22.36-23.32
		H269.6z M400.32,1226.39l-22.36,23.32c6.42,4.67,12.27,9.33,17.49,13.99l22.34-23.32c-5.18-4.67-10.92-9.33-17-13.99H400.32z
		 M261.34,1366.34l-11.66,12.44l15.55,15.55l9.72-10.88C269.72,1378.78,265.08,1372.56,261.34,1366.34L261.34,1366.34z
		 M409.06,1366.34c-3.73,6.22-8.38,12.44-13.61,17.1l9.72,10.88l15.55-15.55L409.06,1366.34L409.06,1366.34z"/>
	<g>
		<path class="st4" d="M335.2,1192.19c-64.41,0-116.62,51.31-116.62,116.62c0,63.75,52.21,116.62,116.62,116.62
			s116.62-52.87,116.62-116.62C451.82,1243.5,399.6,1192.19,335.2,1192.19z M335.2,1223.28c47.24,0,85.52,37.32,85.52,85.52
			c0,46.65-38.28,85.52-85.52,85.52s-85.52-38.87-85.52-85.52C249.68,1260.6,287.96,1223.28,335.2,1223.28z"/>
		<path class="st3" d="M342.97,1307.77c0,4.29-3.48,7.77-7.77,7.77s-7.77-3.48-7.77-7.77s3.48-7.77,7.77-7.77
			S342.97,1303.48,342.97,1307.77z"/>
		<path class="st2" d="M335.2,1207.74c-47.24,0-85.52,37.32-85.52,85.52c0,1.55,0.31,4.67,0.49,6.22
			c4.38-43.54,40.75-76.19,85.04-76.19s80.65,32.65,85.04,76.19c0.17-1.55,0.48-4.67,0.48-6.22
			C420.72,1245.05,382.44,1207.74,335.2,1207.74z M219.06,1301.03c-0.16,1.55-0.49,4.67-0.49,7.77
			c0,63.75,52.21,116.62,116.62,116.62s116.62-52.87,116.62-116.62c0-3.11-0.33-6.22-0.48-7.77
			c-3.95,60.64-54.31,108.85-116.14,108.85S223.02,1361.67,219.06,1301.03z"/>
	</g>
</g>
</svg>
