<svg xmlns="http://www.w3.org/2000/svg" xmlns:xlink="http://www.w3.org/1999/xlink" id="LOGO" x="0" y="0" version="1.1" viewBox="0 0 592.65 596.61" style="enable-background:new 0 0 592.65 596.61" xml:space="preserve"><style type="text/css">.st0{fill:#eb524f}</style><path d="M236.8,150.86c16.38,5.08,21.46,18.21,21.46,33.18c-0.14,11.86-1.55,23.72-4.38,35.29	c-6.07,26.4-13.55,52.52-19.76,78.78c-5.08,21.6-9.74,43.48-9.88,65.79c0.14,6.07,1.13,12.14,2.82,17.93	c3.25,11.58,12.99,12.42,20.33,5.36c4.66-4.52,8.89-9.32,12.71-14.54c18.35-24.42,34.59-50.4,48.42-77.65	c13.41-26.12,44.05-85.13,45.88-88.66c9.6-17.65,36.14-14.68,44.19,2.54c4.52,9.32,7.06,19.62,7.48,29.93	c0.71,22.31,2.82,84.56,3.81,93.46c1.84,17.22,12.85,22.73,27.53,13.13c8.89-5.79,16.94-13.13,24.99-20.05	c7.48-6.64,11.44-5.93,15.11,3.39c3.25,8.19,1.84,16.38-0.85,24.14c-9.04,26.26-28.66,40.24-54.78,45.88	c-8.33,1.84-16.94,1.98-25.41,0.56c-18.78-3.11-30.78-13.98-37.98-30.78c-6.92-16.24-9.04-62.4-10.59-68.33	c-2.54,5.36-32.61,67.34-48.42,90.92c-9.88,15.11-21.88,28.8-35.72,40.52c-13.69,11.44-29.22,18.49-47.44,18.92	c-22.02,0.56-37.98-9.46-48.99-28.09c-7.06-12-10.02-25.41-11.01-39.25c-1.41-19.34,1.69-38.26,5.93-57.18	c1.41-6.07,2.4-12.28,3.95-20.05c-6.07,3.11-10.02,5.93-14.54,7.48c-5.36,1.84-11.15,3.67-16.8,3.53	c-20.05-0.56-23.01-22.73-23.01-26.4c6.78-5.22,13.98-10.02,20.19-15.67c29.65-26.82,51.95-59.01,68.05-95.43	c5.36-12,12-22.31,23.86-28.66C227.91,149.17,231.44,149.03,236.8,150.86z" class="st0"/></svg>