<svg xmlns="http://www.w3.org/2000/svg" xmlns:xlink="http://www.w3.org/1999/xlink" viewBox="0 0 419.9 360.79"><defs><style>.cls-1{fill:none;stroke-miterlimit:10;stroke-width:8px;stroke:url(#linear-gradient)}</style><linearGradient id="linear-gradient" x1="59.81" x2="358.56" y1="240.26" y2="-58.48" gradientUnits="userSpaceOnUse"><stop offset="0" stop-color="#0071bc"/><stop offset=".36" stop-color="#844bd5"/><stop offset=".7" stop-color="#c1272d"/><stop offset="1" stop-color="#fbae17"/></linearGradient></defs><g id="Layer_2" data-name="Layer 2"><g id="Layer_1-2" data-name="Layer 1"><path d="M5.07,4h95.55a1.1,1.1,0,0,1,.92.58L213.1,235a1,1,0,0,0,.87.55h0a1,1,0,0,0,.89-.57L318.38,4.6a1.1,1.1,0,0,1,.93-.6h95.52a.94.94,0,0,1,.91,1.49L235.33,356.24a1.14,1.14,0,0,1-.91.55h-52a1.1,1.1,0,0,1-.91-.56L4.16,5.48A.94.94,0,0,1,5.07,4Z" class="cls-1"/></g></g></svg>